<?xml version="1.0" encoding="UTF-8" standalone="no" ?>
<!DOCTYPE svg PUBLIC "-//W3C//DTD SVG 1.1//EN" "http://www.w3.org/Graphics/SVG/1.1/DTD/svg11.dtd">
<svg xmlns="http://www.w3.org/2000/svg" xmlns:xlink="http://www.w3.org/1999/xlink" version="1.1" width="1080" height="1080" viewBox="0 0 1080 1080" xml:space="preserve">
<desc>Created with Fabric.js 5.2.4</desc>
<defs>
</defs>
<g transform="matrix(1 0 0 1 540 540)" id="97414a03-7bcb-474b-a6cc-851d10f399dc"  >
<rect style="stroke: none; stroke-width: 1; stroke-dasharray: none; stroke-linecap: butt; stroke-dashoffset: 0; stroke-linejoin: miter; stroke-miterlimit: 4; fill: rgb(0,0,0); fill-rule: nonzero; opacity: 1; visibility: hidden;" vector-effect="non-scaling-stroke"  x="-540" y="-540" rx="0" ry="0" width="1080" height="1080" />
</g>
<g transform="matrix(1 0 0 1 540 540)" id="66fd910a-d71a-45b2-b358-6c439c32d2f5"  >
</g>
<g transform="matrix(NaN NaN NaN NaN 0 0)"  >
<g style=""   >
</g>
</g>
<g transform="matrix(NaN NaN NaN NaN 0 0)"  >
<g style=""   >
</g>
</g>
<g transform="matrix(4.33 0 0 3.39 491.08 540)"  >
<path style="stroke: none; stroke-width: 1; stroke-dasharray: none; stroke-linecap: butt; stroke-dashoffset: 0; stroke-linejoin: miter; stroke-miterlimit: 4; fill: rgb(255,153,0); fill-rule: evenodd; opacity: 1;" vector-effect="non-scaling-stroke"  transform=" translate(-60.45, -38.15)" d="M 86.4269 37.2638 C 80.0757 40.6552 70.87 42.4646 62.944 42.4646 C 51.8305 42.4646 41.8255 39.4868 34.2563 34.5343 C 33.6617 34.1447 34.1945 33.614 34.9081 33.9173 C 43.0767 37.3604 53.1769 39.4317 63.6101 39.4317 C 70.6464 39.4317 78.3868 38.3771 85.504 36.1886 C 86.5791 35.8577 87.4783 36.6986 86.4269 37.2638 Z" stroke-linecap="round" />
</g>
<g transform="matrix(4.33 0 0 3.39 602.2 540)"  >
<path style="stroke: none; stroke-width: 1; stroke-dasharray: none; stroke-linecap: butt; stroke-dashoffset: 0; stroke-linejoin: miter; stroke-miterlimit: 4; fill: rgb(255,153,0); fill-rule: evenodd; opacity: 1;" vector-effect="non-scaling-stroke"  transform=" translate(-86.56, -36.88)" d="M 89.0674 35.0754 C 88.2586 34.324 83.7008 34.7203 81.6551 34.8961 C 81.0319 34.9513 80.9368 34.5583 81.4981 34.2758 C 85.1281 32.425 91.0845 32.9592 91.779 33.5796 C 92.4736 34.2034 91.5983 38.5287 88.1871 40.5931 C 87.6638 40.9102 87.1642 40.7413 87.3974 40.3208 C 88.1634 38.9354 89.8808 35.8301 89.0674 35.0754 Z" stroke-linecap="round" />
</g>
<g transform="matrix(1 0 0 1 540 477.3)" style="" id="3bd6eb97-7cc5-4eae-b7b4-7248e860f0bb"  >
		<text xml:space="preserve" font-family="Alegreya" font-size="104" font-style="normal" font-weight="700" style="stroke: none; stroke-width: 1; stroke-dasharray: none; stroke-linecap: butt; stroke-dashoffset: 0; stroke-linejoin: miter; stroke-miterlimit: 4; fill: rgb(255,255,255); fill-rule: nonzero; opacity: 1; white-space: pre;" ><tspan x="-220.32" y="32.67" >Amazonia</tspan></text>
</g>
</svg>